<svg xmlns="http://www.w3.org/2000/svg" xmlns:xlink="http://www.w3.org/1999/xlink" width="29" height="40" viewBox="0 0 29 40">

    <g rule="evenodd" transform="translate(2.464 6.25)">
        <path fill="#F2F2F2" d="M0 28.123l1.358-6.533 5.626.002c.715-.022 1.394-.386 1.877-.997.61-.771.567-1.78.424-2.49 0 0-1.555-7.634-1.716-8.488-.594-3.145.449-6.303 2.656-8.045C11.305.719 12.632.188 14.061.037c.305-.033.616-.037.906-.037l8.439.001-1.35 6.515-5.053-.002c-.843.003-1.788.122-2.426.976-.183.216-.32.471-.414.78-.25.811-.081 1.602.067 2.3l1.398 6.905c.17.842.33 1.637.36 2.468.078 2.126-.545 4.106-1.753 5.573-1.094 1.33-2.688 2.223-4.49 2.518-.463.076-.933.091-1.496.091L0 28.123z"/>
    </g>
</svg>
